<?xml version="1.0" encoding="iso-8859-1"?>
<!DOCTYPE svg PUBLIC "-//W3C//DTD SVG 1.1//EN" "http://www.w3.org/Graphics/SVG/1.1/DTD/svg11.dtd">
<svg fill="#C1C1C1" height="800px" width="800px" version="1.1" id="Capa_1" xmlns="http://www.w3.org/2000/svg" xmlns:xlink="http://www.w3.org/1999/xlink" 
	 viewBox="0 0 496.247 496.247" xml:space="preserve">
<path d="M428.862,165.538V33.521C428.862,15.037,413.825,0,395.341,0H101.273C82.789,0,67.752,15.037,67.752,33.521v131.703
	c-6.676,6.382-10.892,15.308-10.892,25.256v32.723c0,18.708,14.754,33.895,33.223,34.879v108.133
	c-13.522,8.359-22.632,23.196-22.632,40.225c0,25.628,20.466,46.435,45.895,47.258v11.2c0,17.31,14.039,31.349,31.357,31.349
	c17.318,0,31.356-14.039,31.356-31.349v-11.05h144.129v11.05c0,17.31,14.037,31.349,31.357,31.349
	c17.318,0,31.355-14.039,31.355-31.349v-11.2c25.446-0.815,45.912-21.63,45.912-47.258c0-17.037-9.109-31.874-22.647-40.233V258.065
	c18.468-0.982,33.221-16.171,33.221-34.87v-32.723C439.386,180.7,435.326,171.897,428.862,165.538z M394.758,33.521v121.89h-6.311
	l-2.164-16.471c-2.582-19.482-19.351-34.178-39-34.178H148.967c-19.651,0-36.42,14.696-39,34.187l-2.166,16.462h-5.979
	l-0.549-121.306L394.758,33.521z M324.651,344.825h47.41v14.213h-68.243v-86.977c0-10.617-8.642-19.251-19.25-19.251h-72.92
	c-10.608,0-19.25,8.634-19.25,19.251v86.977h-68.209v-14.213h47.775c1.632,0,2.949-1.84,2.949-4.104v-41.666
	c0-2.265-1.317-4.096-2.949-4.096h-47.775v-45.695c0-6.103,4.962-11.065,11.074-11.065h225.725c6.112,0,11.074,4.962,11.074,11.065
	v45.695h-47.41c-1.632,0-2.963,1.831-2.963,4.096v41.666C321.687,342.985,323.019,344.825,324.651,344.825z M209.449,333.177v-9.226
	h77.316v9.226H209.449z M286.766,350.229v8.809h-77.316v-8.809H286.766z M209.449,306.899v-9.233h77.316v9.233H209.449z
	 M209.449,280.613v-8.552c0-1.216,0.982-2.198,2.198-2.198h72.92c1.216,0,2.198,0.982,2.198,2.198v8.552H209.449z M127.068,204.927
	l8.243-62.622c0.915-6.819,6.778-11.964,13.655-11.964h198.316c6.877,0,12.738,5.144,13.654,11.956l8.243,62.631
	c-2.663-0.499-5.395-0.832-8.192-0.832H135.262C132.446,204.095,129.732,204.427,127.068,204.927z M73.913,223.203V190.48
	c0-9.933,8.076-18.017,18.019-18.017h13.622l-6.628,50.215c-3.93,5.361-6.744,11.556-8.009,18.335
	C81.474,240.464,73.913,232.778,73.913,223.203z M381.402,428.27h-266.54c-12.041,0-21.832-9.792-21.832-21.83
	c0-12.032,9.791-21.824,21.832-21.824h266.54c12.041,0,21.832,9.792,21.832,21.824C403.234,418.479,393.443,428.27,381.402,428.27z
	 M422.334,223.195c0,9.575-7.559,17.252-17.001,17.801c-1.267-6.776-4.081-12.963-8.011-18.317l-6.626-50.215h13.622
	c9.941,0,18.017,8.076,18.017,18.009V223.195z"/>
</svg>